PathFileType	4	(X/Y/Z)	OpenSim_Sub08_EMGStiffKnee_Gyro.trc
DataRate	CameraRate	NumFrames	NumMarkers	Units	OrigDataRate	OrigDataStartFrame	OrigNumFrames
100	100	26	8	m	100	1576	6301
Frame#	Time	torso_imu_offset_imu	pelvis_imu_offset_imu	tibia_r_imu_offset_imu	femur_r_imu_offset_imu	tibia_l_imu_offset_imu	femur_l_imu_offset_imu	toes_r_imu_offset_imu	toes_l_imu_offset_imu
				X1	Y1	Z1	X2	Y2	Z2	X3	Y3	Z3	X4	Y4	Z4	X5	Y5	Z5	X6	Y6	Z6	X7	Y7	Z7	X8		Y8	Z8	

1576	15.75000000	0.58722024	-0.34619738	-0.02538108	-0.21361480	0.12748770	-0.56976232	-0.48421840	-0.19080766	-0.76458430	-0.80459141	-0.20209700	-0.24695044	-1.63159915	-0.28543006	-3.22190225	-0.94677957	0.31463212	-1.54225937	-0.02095579	-0.17392127	-0.02275548	-0.14600265	4.13842107	-2.36743239
1577	15.76000000	0.56491881	-0.34981737	-0.02624677	-0.23918007	0.13505034	-0.57134413	-0.44989068	-0.18029923	-0.74439561	-0.70886738	-0.18820099	-0.27637917	-2.03721108	-0.17459879	-3.47549527	-1.15112971	0.25776441	-1.44464088	-0.05067923	-0.15942759	-0.04255035	0.04182691	4.27879039	-2.53086353
1578	15.77000000	0.53601520	-0.34408466	-0.03572843	-0.24825468	0.09582425	-0.53750235	-0.53608943	-0.17036064	-0.71397975	-0.57888777	-0.17952853	-0.29924801	-2.05767076	0.00627689	-3.73781166	-1.26690255	0.21817786	-1.34928113	-0.00874148	-0.13789844	-0.05943795	0.48852278	4.30155850	-2.61273154
1579	15.78000000	0.50692579	-0.32439569	-0.04027480	-0.26441804	0.03886694	-0.48188656	-0.63766421	-0.15612738	-0.70438763	-0.43388265	-0.19105994	-0.34186222	-1.80413222	0.24687995	-4.06216757	-1.25888863	0.18142508	-1.23433519	0.05158312	-0.10511583	-0.08833272	0.77671083	4.34417502	-2.51634332
1580	15.79000000	0.47903224	-0.31104775	-0.04205851	-0.26539179	0.01959280	-0.43103768	-0.68543716	-0.14060538	-0.67664017	-0.30023998	-0.18417257	-0.40257231	-1.51299164	0.47218971	-4.32455506	-1.15214500	0.12476938	-1.09801897	0.02243112	-0.06523267	-0.12071679	0.59733470	4.30416065	-2.20675901
1581	15.80000000	0.43653944	-0.29487056	-0.04079115	-0.26473238	0.01186334	-0.40453403	-0.63530537	-0.13883712	-0.63830933	-0.21139788	-0.16961332	-0.49601317	-0.94431436	0.46190061	-4.36564168	-1.01710557	0.04970778	-0.95699459	0.03912676	-0.04808752	-0.16880814	0.39992642	4.25034606	-1.80019198
1582	15.81000000	0.40420479	-0.28996545	-0.04491980	-0.26178399	0.04790879	-0.38651287	-0.49899570	-0.13745026	-0.60477551	-0.23196764	-0.16191350	-0.56572044	0.02170834	0.41770830	-4.27168329	-0.90447096	-0.02957933	-0.79553181	0.05890048	-0.00015246	-0.18475946	0.29410716	4.24783037	-1.39081314
1583	15.82000000	0.36212421	-0.28624082	-0.04380945	-0.24646601	0.08003941	-0.37093875	-0.35287624	-0.12501472	-0.60958277	-0.28910173	-0.15021777	-0.59280721	0.70956420	0.66400906	-4.37601022	-0.83015771	-0.10316994	-0.63683557	0.04319489	0.03397008	-0.21136690	0.37043624	4.24155115	-1.02797426
1584	15.83000000	0.31686241	-0.27972317	-0.03203307	-0.24340750	0.07547865	-0.34810925	-0.25780462	-0.09599795	-0.60983196	-0.35953287	-0.14873830	-0.58012982	0.73530055	0.81813971	-4.66241732	-0.73800467	-0.16926443	-0.49211983	0.01600229	0.06514649	-0.24673741	0.39559549	4.17525988	-0.74422778
1585	15.84000000	0.27652607	-0.27532826	-0.00977858	-0.26153524	0.06852791	-0.31635588	-0.11518196	-0.08230361	-0.60042462	-0.40826992	-0.14679076	-0.55909264	0.21879160	0.75033729	-4.82647808	-0.55721227	-0.22210626	-0.39200649	0.06112182	0.06796839	-0.30520923	0.18700918	4.12153230	-0.55213995
1586	15.85000000	0.24566692	-0.26511730	0.00692340	-0.30953020	0.08825291	-0.29564025	-0.03389273	-0.08945776	-0.58585325	-0.43520009	-0.15104024	-0.52976528	-0.41076186	0.71163835	-4.77711725	-0.32443803	-0.25424021	-0.31875569	0.12139790	0.12508416	-0.31840027	0.17416635	4.19388541	-0.51325350
1587	15.86000000	0.21709771	-0.26292720	0.01945874	-0.35691863	0.12923765	-0.28037996	0.00600518	-0.11841379	-0.61361824	-0.46800908	-0.14841994	-0.49585027	-0.81962807	0.72843318	-4.67050114	-0.12179578	-0.29227829	-0.17873066	0.06485958	0.09102644	-0.30763480	0.12207999	4.35350423	-0.61818933
1588	15.87000000	0.18193721	-0.25920137	0.03451462	-0.39349422	0.16894304	-0.27601020	-0.01528509	-0.12682112	-0.67232144	-0.48335037	-0.13107381	-0.46532249	-1.13017446	0.77929882	-4.53063555	-0.08821165	-0.35499960	-0.01478665	0.11326037	0.10353774	-0.31096754	-0.01840578	4.32182478	-0.80757443
1589	15.88000000	0.15373472	-0.24761177	0.03927991	-0.42112867	0.20560329	-0.26501501	-0.04700094	-0.13269335	-0.69344293	-0.50462858	-0.09244102	-0.46275462	-1.16119830	0.72622146	-4.37766174	-0.23761687	-0.40165970	0.15337713	0.09332486	0.11777838	-0.28165287	-0.10221435	3.98129663	-1.01845820
1590	15.89000000	0.11822609	-0.24208544	0.05353239	-0.42556130	0.23881610	-0.24878343	-0.14967102	-0.13057245	-0.70009721	-0.54459163	-0.04507587	-0.46070461	-0.91839214	0.75696693	-4.26568779	-0.49463558	-0.35483916	0.28454828	0.06495370	0.10850495	-0.27066982	-0.08241175	3.66690524	-1.21165785
1591	15.90000000	0.09277940	-0.22755893	0.05561780	-0.43190651	0.26564918	-0.22332545	-0.21261571	-0.14811625	-0.73533189	-0.57917284	-0.00497747	-0.45911170	-0.74679147	0.93130610	-4.18831170	-0.73020688	-0.23898704	0.34163621	0.06091646	0.10873181	-0.24150592	-0.20644888	3.49184568	-1.32577718
1592	15.91000000	0.06621722	-0.21454669	0.06236042	-0.42920220	0.28977381	-0.19369429	-0.27310740	-0.10577304	-0.77396787	-0.58166633	0.01439560	-0.45029941	-0.77344655	0.90774130	-4.05566174	-0.82274085	-0.13511797	0.29095572	0.04004132	0.09309239	-0.23047407	-0.45718429	3.30490528	-1.37335556
1593	15.92000000	0.04514037	-0.19994109	0.06534147	-0.42419276	0.30761492	-0.16513190	-0.32617990	-0.07533622	-0.78579351	-0.56662649	0.02703532	-0.44513648	-0.82078749	0.68083298	-3.88390953	-0.80495746	-0.08310269	0.16916269	0.08133201	0.08747610	-0.21952507	-0.55353046	3.12225337	-1.41436877
1594	15.93000000	0.02136888	-0.18537889	0.05485568	-0.39723039	0.31137603	-0.13881182	-0.29815988	-0.05314111	-0.80270729	-0.53581955	0.05196035	-0.46775678	-0.87871441	0.55867544	-3.72392947	-0.83327475	-0.04389477	0.04350538	0.04203550	0.05326873	-0.25116437	-0.55236417	2.98084069	-1.46849346
1595	15.94000000	-0.00394812	-0.16765879	0.07081279	-0.37208452	0.28988224	-0.10920070	-0.19059788	-0.01812165	-0.84126337	-0.51167835	0.03379757	-0.50462346	-0.95717059	0.57110040	-3.58958132	-0.94812139	-0.00548100	-0.01149843	0.13297190	0.10651098	-0.29632791	-0.48909375	2.84029018	-1.52504790
1596	15.95000000	-0.02760456	-0.15565749	0.07128321	-0.33256118	0.27186175	-0.07699907	-0.03361117	-0.03975689	-0.83737056	-0.41911264	0.00234043	-0.54326196	-0.94194857	0.57241295	-3.44410583	-1.10177586	0.02389127	-0.02447765	0.12067968	0.07580346	-0.27975512	-0.42708340	2.68675278	-1.61604647
1597	15.96000000	-0.05125395	-0.13884894	0.05998720	-0.28974162	0.23523619	-0.05612179	0.07646092	-0.03365006	-0.80313332	-0.25731033	-0.02850216	-0.60693527	-0.83442804	0.56981907	-3.29406607	-1.19387747	0.04221115	-0.00529575	0.07771105	0.07553475	-0.26883498	-0.37351741	2.50459289	-1.76424896
1598	15.97000000	-0.06105383	-0.14059350	0.03604144	-0.22790653	0.21673432	-0.02949119	0.13844334	-0.03565486	-0.76323996	-0.08677699	-0.04717066	-0.68562479	-0.76126294	0.56781393	-3.13073057	-1.12290593	0.04812021	0.04181127	0.09173176	0.06120416	-0.28201916	-0.36932944	2.37535519	-1.94953102
1599	15.98000000	-0.06724162	-0.13891186	0.02363898	-0.16036870	0.21428963	-0.01368509	0.14169121	-0.02188482	-0.75026951	0.04073014	-0.05161056	-0.75276401	-0.75339000	0.58072758	-2.95740077	-0.92754785	0.04421989	0.11835374	0.14781778	0.09911293	-0.31235655	-0.44051223	2.36849271	-2.15788817
1600	15.99000000	-0.05285945	-0.13473912	0.00737621	-0.09507932	0.21810940	-0.01299032	0.08555159	-0.01992296	-0.77470489	0.11790679	-0.03886912	-0.80265990	-0.85639141	0.60580349	-2.74386586	-0.66489515	0.02989614	0.19058007	0.11068843	0.07961727	-0.32553751	-0.53097349	2.37681227	-2.35779484
1601	16	-0.03871133	-0.12242236	0.00368128	-0.04967336	0.21662590	-0.01967418	0.04306166	-0.01213564	-0.79740198	0.12401984	-0.04843078	-0.83887045	-0.97007263	0.64875274	-2.50837381	-0.36125685	-0.01604832	0.26095017	0.14906081	0.11319149	-0.37918444	-0.47926032	2.37073026	-2.48502606
